<svg width="50" height="50" viewBox="0 0 50 50" fill="none" xmlns="http://www.w3.org/2000/svg">
<path d="M50 25C50 31.6304 47.3661 37.9893 42.6777 42.6777C37.9893 47.3661 31.6304 50 25 50C18.3696 50 12.0107 47.3661 7.32233 42.6777C2.63392 37.9893 0 31.6304 0 25C0 18.3696 2.63392 12.0107 7.32233 7.32233C12.0107 2.63392 18.3696 0 25 0C31.6304 0 37.9893 2.63392 42.6777 7.32233C47.3661 12.0107 50 18.3696 50 25ZM17.175 18.8531H19.7531C20.1844 18.8531 20.5281 18.5 20.5844 18.0719C20.8656 16.0219 22.2719 14.5281 24.7781 14.5281C26.9219 14.5281 28.8844 15.6 28.8844 18.1781C28.8844 20.1625 27.7156 21.075 25.8687 22.4625C23.7656 23.9906 22.1 25.775 22.2188 28.6719L22.2281 29.35C22.2314 29.555 22.3152 29.7505 22.4613 29.8944C22.6075 30.0382 22.8043 30.1188 23.0094 30.1187H25.5437C25.7509 30.1187 25.9497 30.0364 26.0962 29.8899C26.2427 29.7434 26.325 29.5447 26.325 29.3375V29.0094C26.325 26.7656 27.1781 26.1125 29.4813 24.3656C31.3844 22.9187 33.3688 21.3125 33.3688 17.9406C33.3688 13.2188 29.3813 10.9375 25.0156 10.9375C21.0562 10.9375 16.7188 12.7812 16.4219 18.0812C16.4176 18.1822 16.434 18.2829 16.4701 18.3772C16.5062 18.4716 16.5612 18.5575 16.6317 18.6298C16.7023 18.7021 16.7869 18.7592 16.8803 18.7976C16.9737 18.836 17.074 18.8549 17.175 18.8531ZM24.4406 38.9875C26.3469 38.9875 27.6563 37.7562 27.6563 36.0906C27.6563 34.3656 26.3438 33.1531 24.4406 33.1531C22.6156 33.1531 21.2875 34.3656 21.2875 36.0906C21.2875 37.7562 22.6156 38.9875 24.4438 38.9875H24.4406Z" fill="#57D0CC"/>
</svg>
