<svg width="50" height="50" viewBox="0 0 50 50" fill="none" xmlns="http://www.w3.org/2000/svg">
<path d="M27.3194 7.01388C24.3109 7.01113 21.3692 7.90075 18.8664 9.57019C16.3635 11.2396 14.4121 13.6139 13.2589 16.3926C12.1057 19.1713 11.8025 22.2296 12.3877 25.1807C12.973 28.1317 14.4203 30.8429 16.5467 32.9712C18.6731 35.0995 21.3829 36.5494 24.3334 37.1373C27.2839 37.7252 30.3425 37.4249 33.1223 36.2742C35.9021 35.1235 38.2781 33.1742 39.9498 30.6729C41.6216 28.1717 42.5139 25.2307 42.5139 22.2222C42.4956 18.1967 40.8894 14.3411 38.0442 11.4933C35.199 8.64557 31.3449 7.03579 27.3194 7.01388ZM27.3194 4.16666C30.8905 4.16666 34.3813 5.2256 37.3506 7.20957C40.3198 9.19354 42.634 12.0134 44.0006 15.3126C45.3672 18.6119 45.7247 22.2422 45.0281 25.7447C44.3314 29.2471 42.6118 32.4643 40.0866 34.9894C37.5615 37.5145 34.3443 39.2342 30.8419 39.9308C27.3395 40.6275 23.7091 40.27 20.4099 38.9034C17.1107 37.5368 14.2908 35.2226 12.3068 32.2533C10.3228 29.2841 9.26388 25.7933 9.26388 22.2222C9.26388 17.4336 11.1662 12.8411 14.5522 9.45501C17.9383 6.06893 22.5308 4.16666 27.3194 4.16666Z" fill="#57D0CC"/>
<path d="M1.38896 46.2361L11.6251 35.9305L13.5973 37.8889L3.36118 48.1944C3.23259 48.3239 3.07976 48.4268 2.9114 48.4973C2.74305 48.5677 2.56247 48.6043 2.37998 48.6049C2.19749 48.6056 2.01666 48.5703 1.84781 48.501C1.67896 48.4318 1.5254 48.33 1.3959 48.2014C1.26641 48.0728 1.1635 47.92 1.09307 47.7516C1.02264 47.5832 0.986052 47.4027 0.985407 47.2202C0.984762 47.0377 1.02007 46.8569 1.08931 46.688C1.15855 46.5192 1.26037 46.3656 1.38896 46.2361Z" fill="#57D0CC"/>
</svg>
